<svg xmlns="http://www.w3.org/2000/svg" xmlns:svg="http://www.w3.org/2000/svg" xmlns:xlink="http://www.w3.org/1999/xlink" id="svg8" width="1000" height="562" version="1.1" viewBox="0 0 264.583 148.696"><defs id="defs2"><linearGradient id="linearGradient847"><stop style="stop-color:#282828;stop-opacity:1" id="stop843" offset="0"/><stop style="stop-color:#191919;stop-opacity:1" id="stop845" offset="1"/></linearGradient><radialGradient id="radialGradient849" cx="26.375" cy="97.114" r="132.292" fx="26.375" fy="97.114" gradientTransform="matrix(0,1.1515333,-2.0099162,0,221.56598,-12.967733)" gradientUnits="userSpaceOnUse" xlink:href="#linearGradient847"/></defs><metadata id="metadata5"/><g id="layer1"><rect style="opacity:.98;fill:url(#radialGradient849);fill-opacity:1;stroke-width:1.61952" id="rect841" width="264.583" height="148.696" x="0" y="0"/><g id="g1287" transform="matrix(0.74999998,0,0,0.79999997,33.07292,-84.402071)"><path id="rect2860" style="opacity:.98;fill:#eb2d37;fill-opacity:1;stroke-width:85.9894" d="M 40 25 A 15 16 0 0 0 25 41 L 25 521 A 15 16 0 0 0 40 537 L 960 537 A 15 16 0 0 0 975 521 L 975 41 A 15 16 0 0 0 960 25 L 40 25 z M 52.5 37.5 L 947.5 37.5 A 15 16 0 0 1 962.5 53.5 L 962.5 508.5 A 15 16 0 0 1 947.5 524.5 L 52.5 524.5 A 15 16 0 0 1 37.5 508.5 L 37.5 53.5 A 15 16 0 0 1 52.5 37.5 z" transform="matrix(0.35277779,0,0,0.33072918,-44.097228,105.50259)"/><g id="g10868" transform="matrix(0.20131067,0,0,0.18872875,110.48569,132.29165)"><polyline id="polyline10860" points="216.64 0 195.333 511.735 17.405 511.735 0 0 216.64 0" style="fill:#eb2d2e"/><polyline id="polyline10862" points="43.581 478.12 171.821 478.12 171.821 412.07 117.047 412.07 117.047 265.206 180.5 265.206 180.5 199.223 118.297 199.223 118.297 104.573 185.5 104.573 185.5 33.628 34.853 33.628 43.581 478.12" style="fill:#fff"/><rect id="rect10864" width="176.772" height="153.131" x="18.69" y="547.831" style="fill:#eb2d2e"/></g></g></g></svg>