<svg xmlns="http://www.w3.org/2000/svg" xmlns:svg="http://www.w3.org/2000/svg" xmlns:xlink="http://www.w3.org/1999/xlink" id="svg8" width="1000" height="1500" version="1.1" viewBox="0 0 264.583 396.875"><defs id="defs2"><linearGradient id="linearGradient847"><stop style="stop-color:#282828;stop-opacity:1" id="stop843" offset="0"/><stop style="stop-color:#191919;stop-opacity:1" id="stop845" offset="1"/></linearGradient><radialGradient id="radialGradient849" cx="26.375" cy="97.114" r="132.292" fx="26.375" fy="97.114" gradientTransform="matrix(0,3.0734875,-2.0099162,0,221.56598,-34.611386)" gradientUnits="userSpaceOnUse" xlink:href="#linearGradient847"/></defs><metadata id="metadata5"/><g id="layer1"><rect style="opacity:.98;fill:url(#radialGradient849);fill-opacity:1;stroke-width:2.64583" id="rect841" width="264.583" height="396.875" x="0" y="0"/><g id="g1876"><rect style="opacity:.98;fill:#fff;fill-opacity:1;stroke-width:3.03645" id="rect1218" width="185.208" height="185.208" x="39.688" y="105.833"/><text xml:space="preserve" style="font-size:28.2222px;line-height:1.25;font-family:Quicksand;-inkscape-font-specification:Quicksand;letter-spacing:0;word-spacing:0;stroke-width:.264583" id="text1222" x="87.643" y="171.089"><tspan id="tspan1220" x="87.643" y="171.089" style="font-style:normal;font-variant:normal;font-weight:700;font-stretch:normal;font-size:28.2222px;font-family:sans-serif;-inkscape-font-specification:'sans-serif Bold';stroke-width:.264583" dy="0">LOGO</tspan></text><text xml:space="preserve" style="font-style:normal;font-variant:normal;font-weight:500;font-stretch:normal;font-size:10.5833px;line-height:1.25;font-family:Quicksand;-inkscape-font-specification:'Quicksand Medium';letter-spacing:0;word-spacing:0;stroke-width:.264583" id="text1226" x="132.24" y="195.221"><tspan id="tspan1224" x="132.24" y="195.221" style="font-style:normal;font-variant:normal;font-weight:700;font-stretch:normal;font-family:sans-serif;-inkscape-font-specification:'sans-serif Bold';text-align:center;text-anchor:middle;stroke-width:.264583">Align your SVG logo to the</tspan><tspan x="132.24" y="208.876" style="font-style:normal;font-variant:normal;font-weight:700;font-stretch:normal;font-family:sans-serif;-inkscape-font-specification:'sans-serif Bold';text-align:center;text-anchor:middle;stroke-width:.264583" id="tspan1228">center of this rectangle.</tspan><tspan x="132.24" y="236.186" style="font-style:normal;font-variant:normal;font-weight:700;font-stretch:normal;font-family:sans-serif;-inkscape-font-specification:'sans-serif Bold';text-align:center;text-anchor:middle;stroke-width:.264583" id="tspan1236">Size should be as big as this</tspan><tspan x="132.24" y="249.84" style="font-style:normal;font-variant:normal;font-weight:700;font-stretch:normal;font-family:sans-serif;-inkscape-font-specification:'sans-serif Bold';text-align:center;text-anchor:middle;stroke-width:.264583" id="tspan1240">rectangle can contain.</tspan></text></g><path id="rect3410" style="opacity:.98;fill:#0cc2ff;fill-opacity:1;stroke-width:46.3438" d="M 49.832031 25 A 25 25 0 0 0 25 50 L 25 1450 A 25 25 0 0 0 50 1475 L 950 1475 A 25 25 0 0 0 975 1450 L 975 50 A 25 25 0 0 0 950 25 L 50 25 A 25 25 0 0 0 49.832031 25 z M 73.542969 50 A 23.68421 24.137931 0 0 1 73.683594 50 L 926.31641 50 A 23.68421 24.137931 0 0 1 950 74.138672 L 950 1425.8613 A 23.68421 24.137931 0 0 1 926.31641 1450 L 73.683594 1450 A 23.68421 24.137931 0 0 1 50 1425.8613 L 50 74.138672 A 23.68421 24.137931 0 0 1 73.542969 50 z" transform="scale(0.26458333)"/></g></svg>