<svg xmlns="http://www.w3.org/2000/svg" xmlns:svg="http://www.w3.org/2000/svg" xmlns:xlink="http://www.w3.org/1999/xlink" id="svg8" width="1000" height="562" version="1.1" viewBox="0 0 264.583 148.696"><defs id="defs2"><linearGradient id="linearGradient847"><stop style="stop-color:#282828;stop-opacity:1" id="stop843" offset="0"/><stop style="stop-color:#191919;stop-opacity:1" id="stop845" offset="1"/></linearGradient><radialGradient id="radialGradient849" cx="26.375" cy="97.114" r="132.292" fx="26.375" fy="97.114" gradientTransform="matrix(0,1.1515333,-2.0099162,0,221.56598,-12.967733)" gradientUnits="userSpaceOnUse" xlink:href="#linearGradient847"/></defs><metadata id="metadata5"/><g id="layer1"><rect style="opacity:.98;fill:url(#radialGradient849);fill-opacity:1;stroke-width:1.61952" id="rect841" width="264.583" height="148.696" x="0" y="0"/><g id="g1287" transform="matrix(0.74999998,0,0,0.79999997,33.07292,-84.402071)"><g id="g2555"><rect style="opacity:.98;fill:#fff;fill-opacity:1;stroke-width:3.03645" id="rect1218" width="246.944" height="132.292" x="8.819" y="132.292"/><text xml:space="preserve" style="font-size:28.2222px;line-height:1.25;font-family:Quicksand;-inkscape-font-specification:Quicksand;letter-spacing:0;word-spacing:0;stroke-width:.264583" id="text1222" x="87.643" y="171.089"><tspan id="tspan1220" x="87.643" y="171.089" style="font-style:normal;font-variant:normal;font-weight:700;font-stretch:normal;font-size:28.2222px;font-family:sans-serif;-inkscape-font-specification:'sans-serif Bold';stroke-width:.264583" dy="0">LOGO</tspan></text><text xml:space="preserve" style="font-style:normal;font-variant:normal;font-weight:500;font-stretch:normal;font-size:10.5833px;line-height:1.25;font-family:Quicksand;-inkscape-font-specification:'Quicksand Medium';letter-spacing:0;word-spacing:0;stroke-width:.264583" id="text1226" x="132.24" y="195.221"><tspan id="tspan1224" x="132.24" y="195.221" style="font-style:normal;font-variant:normal;font-weight:700;font-stretch:normal;font-family:sans-serif;-inkscape-font-specification:'sans-serif Bold';text-align:center;text-anchor:middle;stroke-width:.264583">Align your SVG logo to the</tspan><tspan x="132.24" y="208.876" style="font-style:normal;font-variant:normal;font-weight:700;font-stretch:normal;font-family:sans-serif;-inkscape-font-specification:'sans-serif Bold';text-align:center;text-anchor:middle;stroke-width:.264583" id="tspan1228">center of this rectangle.</tspan><tspan x="132.24" y="236.186" style="font-style:normal;font-variant:normal;font-weight:700;font-stretch:normal;font-family:sans-serif;-inkscape-font-specification:'sans-serif Bold';text-align:center;text-anchor:middle;stroke-width:.264583" id="tspan1236">Size should be as big as this</tspan><tspan x="132.24" y="249.84" style="font-style:normal;font-variant:normal;font-weight:700;font-stretch:normal;font-family:sans-serif;-inkscape-font-specification:'sans-serif Bold';text-align:center;text-anchor:middle;stroke-width:.264583" id="tspan1240">rectangle can contain.</tspan></text></g><path id="rect2860" style="opacity:.98;fill:#0cc2ff;fill-opacity:1;stroke-width:85.9894" d="M 40 25 A 15 16 0 0 0 25 41 L 25 521 A 15 16 0 0 0 40 537 L 960 537 A 15 16 0 0 0 975 521 L 975 41 A 15 16 0 0 0 960 25 L 40 25 z M 52.5 37.5 L 947.5 37.5 A 15 16 0 0 1 962.5 53.5 L 962.5 508.5 A 15 16 0 0 1 947.5 524.5 L 52.5 524.5 A 15 16 0 0 1 37.5 508.5 L 37.5 53.5 A 15 16 0 0 1 52.5 37.5 z" transform="matrix(0.35277779,0,0,0.33072918,-44.097228,105.50259)"/></g></g></svg>